<svg width="27" height="26" viewBox="0 0 27 26" fill="none" xmlns="http://www.w3.org/2000/svg">
<path d="M22.7148 3.75378C20.2113 1.26318 17.1528 0 13.625 0C10.0643 0 6.99724 1.26461 4.50807 3.75521C2.01461 6.24581 0.75 9.31578 0.75 12.875C0.75 16.4013 2.01318 19.4598 4.50378 21.9648C6.99438 24.4768 10.0629 25.75 13.625 25.75C17.1542 25.75 20.2127 24.4768 22.7176 21.969C25.2282 19.4613 26.5 16.4013 26.5 12.875C26.5 9.31578 25.2268 6.24581 22.7148 3.75378ZM20.6948 19.9462C19.0683 21.5756 17.21 22.5041 15.0556 22.7859V15.7361H17.9167V12.875H15.0556V10.8722C15.0556 10.7594 15.0778 10.6477 15.121 10.5434C15.1643 10.4392 15.2276 10.3445 15.3075 10.2648C15.3873 10.1851 15.4821 10.1219 15.5864 10.0788C15.6907 10.0358 15.8025 10.0137 15.9153 10.0139H17.9167V7.15278H15.9182C14.8567 7.15278 13.9712 7.54332 13.2616 8.32869C12.5521 9.11121 12.1944 10.0668 12.1944 11.2013V12.875H9.33333V15.7361H12.1944V22.7888C10.0171 22.5098 8.15169 21.5799 6.53374 19.9505C4.56672 17.9706 3.61111 15.656 3.61111 12.875C3.61111 10.0625 4.56529 7.74217 6.53231 5.77944C8.49217 3.81529 10.8125 2.86111 13.625 2.86111C16.4074 2.86111 18.7206 3.81672 20.6991 5.78374C22.6776 7.74646 23.6389 10.0668 23.6389 12.875C23.6389 15.6517 22.6761 17.9663 20.6948 19.9462Z" fill="#F7941D"/>
</svg>
