<svg width="26" height="26" viewBox="0 0 26 26" fill="none" xmlns="http://www.w3.org/2000/svg">
<path d="M7.4675 0H18.2825C22.4025 0 25.75 3.3475 25.75 7.4675V18.2825C25.75 20.263 24.9632 22.1624 23.5628 23.5628C22.1624 24.9632 20.263 25.75 18.2825 25.75H7.4675C3.3475 25.75 0 22.4025 0 18.2825V7.4675C0 5.487 0.786752 3.58761 2.18718 2.18718C3.58761 0.786752 5.487 0 7.4675 0ZM7.21 2.575C5.98072 2.575 4.80179 3.06333 3.93256 3.93256C3.06333 4.80179 2.575 5.98072 2.575 7.21V18.54C2.575 21.1021 4.64787 23.175 7.21 23.175H18.54C19.7693 23.175 20.9482 22.6867 21.8174 21.8174C22.6867 20.9482 23.175 19.7693 23.175 18.54V7.21C23.175 4.64787 21.1021 2.575 18.54 2.575H7.21ZM19.6344 4.50625C20.0612 4.50625 20.4706 4.67581 20.7724 4.97762C21.0742 5.27944 21.2437 5.68879 21.2437 6.11562C21.2437 6.54246 21.0742 6.95181 20.7724 7.25362C20.4706 7.55544 20.0612 7.725 19.6344 7.725C19.2075 7.725 18.7982 7.55544 18.4964 7.25362C18.1946 6.95181 18.025 6.54246 18.025 6.11562C18.025 5.68879 18.1946 5.27944 18.4964 4.97762C18.7982 4.67581 19.2075 4.50625 19.6344 4.50625ZM12.875 6.4375C14.5823 6.4375 16.2197 7.11573 17.427 8.323C18.6343 9.53027 19.3125 11.1677 19.3125 12.875C19.3125 14.5823 18.6343 16.2197 17.427 17.427C16.2197 18.6343 14.5823 19.3125 12.875 19.3125C11.1677 19.3125 9.53027 18.6343 8.323 17.427C7.11573 16.2197 6.4375 14.5823 6.4375 12.875C6.4375 11.1677 7.11573 9.53027 8.323 8.323C9.53027 7.11573 11.1677 6.4375 12.875 6.4375ZM12.875 9.0125C11.8506 9.0125 10.8682 9.41944 10.1438 10.1438C9.41944 10.8682 9.0125 11.8506 9.0125 12.875C9.0125 13.8994 9.41944 14.8818 10.1438 15.6062C10.8682 16.3306 11.8506 16.7375 12.875 16.7375C13.8994 16.7375 14.8818 16.3306 15.6062 15.6062C16.3306 14.8818 16.7375 13.8994 16.7375 12.875C16.7375 11.8506 16.3306 10.8682 15.6062 10.1438C14.8818 9.41944 13.8994 9.0125 12.875 9.0125Z" fill="#F7941D"/>
</svg>
