<svg width="27" height="23" viewBox="0 0 27 23" fill="none" xmlns="http://www.w3.org/2000/svg">
<path d="M26.25 0.0781422C26.25 0.0781422 23.888 1.58508 22.5748 2.01238C21.8699 1.13693 20.933 0.516432 19.891 0.23481C18.8489 -0.0468116 17.7519 0.0240286 16.7483 0.43775C15.7448 0.851472 14.8831 1.58811 14.2797 2.54804C13.6764 3.50798 13.3606 4.64488 13.375 5.805V7.06921C11.3181 7.12681 9.2799 6.63408 7.44198 5.63489C5.60405 4.63571 4.02344 3.16108 2.84091 1.34235C2.84091 1.34235 -1.84091 12.7202 8.69318 17.777C6.28266 19.5444 3.4111 20.4305 0.5 20.3055C11.0341 26.6265 23.9091 20.3055 23.9091 5.76707C23.9091 5.41562 23.8763 5.06417 23.8155 4.71778C25.0093 3.44599 26.25 0.0781422 26.25 0.0781422Z" fill="#F7941D"/>
</svg>
